<mxfile host="app.diagrams.net" modified="2023-03-21T16:15:51.246Z" agent="5.0 (X11; Linux x86_64) AppleWebKit/537.36 (KHTML, like Gecko) Chrome/110.0.0.0 Safari/537.36" etag="HJj3kqKYrLR6F9iiL3ra" version="21.0.6" type="github">
  <diagram id="g7fYQ90FhEnoCOdFYeij" name="Page-1">
    <mxGraphModel dx="5757" dy="2763" grid="0" gridSize="10" guides="1" tooltips="1" connect="1" arrows="1" fold="1" page="0" pageScale="1" pageWidth="827" pageHeight="1169" math="0" shadow="0">
      <root>
        <mxCell id="0" />
        <mxCell id="1" parent="0" />
        <mxCell id="hjuyHTvlB5CmD21Vtv22-89" value="&amp;nbsp;Surveillance du paludisme sur le territoire Guyanais" style="rounded=0;whiteSpace=wrap;html=1;fillColor=none;dashed=1;dashPattern=12 12;verticalAlign=top;align=left;fontSize=20;fontStyle=1" vertex="1" parent="1">
          <mxGeometry x="-421" y="-381" width="2257" height="1773" as="geometry" />
        </mxCell>
        <mxCell id="hjuyHTvlB5CmD21Vtv22-88" value="Surveillance transfrontalière du paludisme" style="rounded=0;whiteSpace=wrap;html=1;fillColor=#EDEDED;dashed=1;dashPattern=12 12;verticalAlign=top;align=left;fontSize=20;fontStyle=1" vertex="1" parent="1">
          <mxGeometry x="-855" y="-381" width="434" height="1773" as="geometry" />
        </mxCell>
        <mxCell id="hjuyHTvlB5CmD21Vtv22-76" value="" style="html=1;dashed=1;whitespace=wrap;fillColor=#fff2cc;strokeColor=#d6b656;" vertex="1" parent="1">
          <mxGeometry x="-194" y="1221" width="254" height="143" as="geometry" />
        </mxCell>
        <mxCell id="hjuyHTvlB5CmD21Vtv22-63" value="" style="html=1;dashed=1;whitespace=wrap;fillColor=#fff2cc;strokeColor=#d6b656;align=left;" vertex="1" parent="1">
          <mxGeometry x="1314" y="-245" width="160" height="102" as="geometry" />
        </mxCell>
        <mxCell id="hjuyHTvlB5CmD21Vtv22-61" value="" style="html=1;dashed=1;whitespace=wrap;fillColor=#fff2cc;strokeColor=#d6b656;align=left;" vertex="1" parent="1">
          <mxGeometry x="394.5" y="231" width="160" height="102" as="geometry" />
        </mxCell>
        <mxCell id="hjuyHTvlB5CmD21Vtv22-59" value="" style="html=1;dashed=1;whitespace=wrap;fillColor=#fff2cc;strokeColor=#d6b656;align=left;" vertex="1" parent="1">
          <mxGeometry x="769" y="-5" width="160" height="102" as="geometry" />
        </mxCell>
        <mxCell id="soGgQo1d9cTRyv0vqCLj-78" value="" style="html=1;dashed=1;whitespace=wrap;fillColor=#fff2cc;strokeColor=#d6b656;align=left;" parent="1" vertex="1">
          <mxGeometry x="1102" y="509" width="160" height="221" as="geometry" />
        </mxCell>
        <mxCell id="soGgQo1d9cTRyv0vqCLj-87" value="" style="html=1;dashed=1;whitespace=wrap;fillColor=#fff2cc;strokeColor=#d6b656;" parent="1" vertex="1">
          <mxGeometry x="37" y="551" width="517" height="350" as="geometry" />
        </mxCell>
        <mxCell id="u60AbG91HoaB3VA-9xF0-2" style="edgeStyle=orthogonalEdgeStyle;rounded=0;orthogonalLoop=1;jettySize=auto;html=1;exitX=0;exitY=0.5;exitDx=0;exitDy=0;entryX=1;entryY=0.5;entryDx=0;entryDy=0;" parent="1" source="soGgQo1d9cTRyv0vqCLj-1" target="u60AbG91HoaB3VA-9xF0-1" edge="1">
          <mxGeometry relative="1" as="geometry" />
        </mxCell>
        <mxCell id="soGgQo1d9cTRyv0vqCLj-1" value="Base de données&lt;br&gt;Cas&lt;br&gt;CHC/CDPS" style="shape=cylinder;whiteSpace=wrap;html=1;boundedLbl=1;backgroundOutline=1;" parent="1" vertex="1">
          <mxGeometry x="95" y="586.99" width="60" height="80" as="geometry" />
        </mxCell>
        <mxCell id="soGgQo1d9cTRyv0vqCLj-3" style="edgeStyle=elbowEdgeStyle;rounded=0;orthogonalLoop=1;jettySize=auto;elbow=vertical;html=1;entryX=0.5;entryY=1;entryDx=0;entryDy=0;startArrow=none;exitX=0.5;exitY=-0.011;exitDx=0;exitDy=0;exitPerimeter=0;" parent="1" source="soGgQo1d9cTRyv0vqCLj-36" target="soGgQo1d9cTRyv0vqCLj-16" edge="1">
          <mxGeometry relative="1" as="geometry">
            <mxPoint x="474" y="619.99" as="sourcePoint" />
          </mxGeometry>
        </mxCell>
        <mxCell id="soGgQo1d9cTRyv0vqCLj-85" style="edgeStyle=orthogonalEdgeStyle;rounded=0;orthogonalLoop=1;jettySize=auto;html=1;exitX=0;exitY=0.5;exitDx=0;exitDy=0;endArrow=none;endFill=0;" parent="1" source="soGgQo1d9cTRyv0vqCLj-5" target="soGgQo1d9cTRyv0vqCLj-38" edge="1">
          <mxGeometry relative="1" as="geometry" />
        </mxCell>
        <mxCell id="soGgQo1d9cTRyv0vqCLj-5" value="CDPS" style="html=1;dashed=0;whitespace=wrap;fillColor=#d5e8d4;strokeColor=#82b366;" parent="1" vertex="1">
          <mxGeometry x="424" y="833" width="100" height="50" as="geometry" />
        </mxCell>
        <mxCell id="soGgQo1d9cTRyv0vqCLj-6" style="edgeStyle=elbowEdgeStyle;rounded=0;orthogonalLoop=1;jettySize=auto;html=1;entryX=1;entryY=0.5;entryDx=0;entryDy=0;elbow=vertical;startArrow=none;exitX=0;exitY=0.5;exitDx=0;exitDy=0;" parent="1" source="soGgQo1d9cTRyv0vqCLj-7" target="soGgQo1d9cTRyv0vqCLj-1" edge="1">
          <mxGeometry relative="1" as="geometry">
            <mxPoint x="150" y="-390.01" as="targetPoint" />
            <mxPoint x="65" y="-420.01" as="sourcePoint" />
          </mxGeometry>
        </mxCell>
        <mxCell id="hjuyHTvlB5CmD21Vtv22-51" style="edgeStyle=orthogonalEdgeStyle;rounded=0;orthogonalLoop=1;jettySize=auto;html=1;exitX=0.25;exitY=1;exitDx=0;exitDy=0;entryX=0.25;entryY=0;entryDx=0;entryDy=0;" edge="1" parent="1" source="soGgQo1d9cTRyv0vqCLj-7" target="0BxKxRSpmN7JtVQ8fGr3-6">
          <mxGeometry relative="1" as="geometry" />
        </mxCell>
        <mxCell id="soGgQo1d9cTRyv0vqCLj-7" value="CHC/Pôle des&lt;br&gt;CDPS" style="html=1;dashed=0;whitespace=wrap;" parent="1" vertex="1">
          <mxGeometry x="195" y="601.99" width="100" height="50" as="geometry" />
        </mxCell>
        <mxCell id="hjuyHTvlB5CmD21Vtv22-36" style="edgeStyle=orthogonalEdgeStyle;rounded=0;orthogonalLoop=1;jettySize=auto;html=1;exitX=1;exitY=0.75;exitDx=0;exitDy=0;entryX=0.5;entryY=1;entryDx=0;entryDy=0;startArrow=none;" edge="1" parent="1" source="hjuyHTvlB5CmD21Vtv22-35" target="Eu0Y002OEBs1yhH1_e7d-9">
          <mxGeometry relative="1" as="geometry" />
        </mxCell>
        <mxCell id="hjuyHTvlB5CmD21Vtv22-39" style="edgeStyle=orthogonalEdgeStyle;rounded=0;orthogonalLoop=1;jettySize=auto;html=1;exitX=0.75;exitY=0;exitDx=0;exitDy=0;entryX=0.49;entryY=0.85;entryDx=0;entryDy=0;entryPerimeter=0;" edge="1" parent="1" source="soGgQo1d9cTRyv0vqCLj-11" target="hjuyHTvlB5CmD21Vtv22-40">
          <mxGeometry relative="1" as="geometry">
            <mxPoint x="936" y="-195.5" as="targetPoint" />
          </mxGeometry>
        </mxCell>
        <mxCell id="soGgQo1d9cTRyv0vqCLj-11" value="SPF /&lt;br&gt;CIRE Guyane" style="html=1;dashed=0;whitespace=wrap;" parent="1" vertex="1">
          <mxGeometry x="799" y="21" width="100" height="50" as="geometry" />
        </mxCell>
        <mxCell id="Eu0Y002OEBs1yhH1_e7d-13" style="edgeStyle=orthogonalEdgeStyle;rounded=0;orthogonalLoop=1;jettySize=auto;html=1;exitX=0.25;exitY=0;exitDx=0;exitDy=0;entryX=0;entryY=0.25;entryDx=0;entryDy=0;startArrow=classic;startFill=1;endArrow=none;endFill=0;" parent="1" source="soGgQo1d9cTRyv0vqCLj-12" target="soGgQo1d9cTRyv0vqCLj-11" edge="1">
          <mxGeometry relative="1" as="geometry" />
        </mxCell>
        <mxCell id="Eu0Y002OEBs1yhH1_e7d-14" value="Informations diverses" style="edgeLabel;html=1;align=center;verticalAlign=middle;resizable=0;points=[];" parent="Eu0Y002OEBs1yhH1_e7d-13" vertex="1" connectable="0">
          <mxGeometry x="-0.2884" y="1" relative="1" as="geometry">
            <mxPoint x="-24" y="23" as="offset" />
          </mxGeometry>
        </mxCell>
        <mxCell id="Eu0Y002OEBs1yhH1_e7d-17" style="edgeStyle=orthogonalEdgeStyle;rounded=0;orthogonalLoop=1;jettySize=auto;html=1;exitX=0.75;exitY=0;exitDx=0;exitDy=0;entryX=0;entryY=0.5;entryDx=0;entryDy=0;" parent="1" source="soGgQo1d9cTRyv0vqCLj-12" target="soGgQo1d9cTRyv0vqCLj-11" edge="1">
          <mxGeometry relative="1" as="geometry" />
        </mxCell>
        <mxCell id="Eu0Y002OEBs1yhH1_e7d-18" value="Résultats analyses&lt;br&gt;(résistance, ...),&lt;br&gt;info. diverses&lt;br&gt;(hebdo)" style="edgeLabel;html=1;align=center;verticalAlign=middle;resizable=0;points=[];" parent="Eu0Y002OEBs1yhH1_e7d-17" vertex="1" connectable="0">
          <mxGeometry x="-0.2659" y="-1" relative="1" as="geometry">
            <mxPoint x="21" y="68" as="offset" />
          </mxGeometry>
        </mxCell>
        <mxCell id="hjuyHTvlB5CmD21Vtv22-42" style="edgeStyle=orthogonalEdgeStyle;rounded=0;orthogonalLoop=1;jettySize=auto;html=1;exitX=0;exitY=0.5;exitDx=0;exitDy=0;entryX=0.511;entryY=0;entryDx=0;entryDy=0;entryPerimeter=0;startArrow=none;" edge="1" parent="1" source="B1FECNCcKLdafd96bGU7-9" target="B1FECNCcKLdafd96bGU7-4">
          <mxGeometry relative="1" as="geometry" />
        </mxCell>
        <mxCell id="soGgQo1d9cTRyv0vqCLj-12" value="CNR Paludisme" style="html=1;dashed=0;whitespace=wrap;" parent="1" vertex="1">
          <mxGeometry x="424" y="256" width="100" height="50" as="geometry" />
        </mxCell>
        <mxCell id="soGgQo1d9cTRyv0vqCLj-13" style="edgeStyle=orthogonalEdgeStyle;rounded=0;orthogonalLoop=1;jettySize=auto;html=1;exitX=0.5;exitY=0;exitDx=0;exitDy=0;entryX=0.5;entryY=1;entryDx=0;entryDy=0;startArrow=none;" parent="1" source="soGgQo1d9cTRyv0vqCLj-49" target="soGgQo1d9cTRyv0vqCLj-12" edge="1">
          <mxGeometry relative="1" as="geometry" />
        </mxCell>
        <mxCell id="soGgQo1d9cTRyv0vqCLj-14" style="edgeStyle=elbowEdgeStyle;rounded=0;orthogonalLoop=1;jettySize=auto;elbow=vertical;html=1;exitX=0;exitY=0.5;exitDx=0;exitDy=0;entryX=1;entryY=0.5;entryDx=0;entryDy=0;startArrow=none;" parent="1" source="soGgQo1d9cTRyv0vqCLj-58" target="soGgQo1d9cTRyv0vqCLj-7" edge="1">
          <mxGeometry relative="1" as="geometry">
            <Array as="points" />
          </mxGeometry>
        </mxCell>
        <mxCell id="soGgQo1d9cTRyv0vqCLj-16" value="CHC/LHUPM" style="html=1;dashed=0;whitespace=wrap;" parent="1" vertex="1">
          <mxGeometry x="424" y="601.99" width="100" height="50" as="geometry" />
        </mxCell>
        <mxCell id="soGgQo1d9cTRyv0vqCLj-19" style="edgeStyle=orthogonalEdgeStyle;rounded=0;orthogonalLoop=1;jettySize=auto;html=1;exitX=0.75;exitY=1;exitDx=0;exitDy=0;entryX=0.75;entryY=0;entryDx=0;entryDy=0;strokeColor=#000000;endArrow=classic;endFill=1;" parent="1" source="soGgQo1d9cTRyv0vqCLj-21" target="soGgQo1d9cTRyv0vqCLj-76" edge="1">
          <mxGeometry relative="1" as="geometry" />
        </mxCell>
        <mxCell id="soGgQo1d9cTRyv0vqCLj-20" value="Nom/Adresse du cas" style="edgeLabel;html=1;align=center;verticalAlign=middle;resizable=0;points=[];labelBackgroundColor=none;" parent="soGgQo1d9cTRyv0vqCLj-19" vertex="1" connectable="0">
          <mxGeometry x="-0.0151" y="1" relative="1" as="geometry">
            <mxPoint x="10" y="-16" as="offset" />
          </mxGeometry>
        </mxCell>
        <mxCell id="Eu0Y002OEBs1yhH1_e7d-20" style="edgeStyle=orthogonalEdgeStyle;rounded=0;orthogonalLoop=1;jettySize=auto;html=1;exitX=1;exitY=0.75;exitDx=0;exitDy=0;entryX=0;entryY=0.5;entryDx=0;entryDy=0;" parent="1" source="soGgQo1d9cTRyv0vqCLj-21" target="Eu0Y002OEBs1yhH1_e7d-19" edge="1">
          <mxGeometry relative="1" as="geometry" />
        </mxCell>
        <mxCell id="hjuyHTvlB5CmD21Vtv22-9" style="edgeStyle=orthogonalEdgeStyle;rounded=0;orthogonalLoop=1;jettySize=auto;html=1;exitX=1;exitY=0.5;exitDx=0;exitDy=0;entryX=0.5;entryY=1;entryDx=0;entryDy=0;" edge="1" parent="1" source="soGgQo1d9cTRyv0vqCLj-21" target="n1sZ7gGWq_7eU4WZFnXG-12">
          <mxGeometry relative="1" as="geometry" />
        </mxCell>
        <mxCell id="hjuyHTvlB5CmD21Vtv22-10" value="Résultats&lt;br style=&quot;border-color: var(--border-color);&quot;&gt;enquête" style="edgeLabel;html=1;align=center;verticalAlign=middle;resizable=0;points=[];" vertex="1" connectable="0" parent="hjuyHTvlB5CmD21Vtv22-9">
          <mxGeometry x="0.6234" y="-2" relative="1" as="geometry">
            <mxPoint y="-1" as="offset" />
          </mxGeometry>
        </mxCell>
        <mxCell id="soGgQo1d9cTRyv0vqCLj-21" value="CTG/SDD" style="html=1;dashed=0;whitespace=wrap;" parent="1" vertex="1">
          <mxGeometry x="1132" y="539.99" width="100" height="50" as="geometry" />
        </mxCell>
        <mxCell id="Eu0Y002OEBs1yhH1_e7d-4" style="edgeStyle=orthogonalEdgeStyle;rounded=0;orthogonalLoop=1;jettySize=auto;html=1;exitX=0.5;exitY=0;exitDx=0;exitDy=0;entryX=0.5;entryY=1;entryDx=0;entryDy=0;" parent="1" source="hjuyHTvlB5CmD21Vtv22-5" target="Eu0Y002OEBs1yhH1_e7d-1" edge="1">
          <mxGeometry relative="1" as="geometry" />
        </mxCell>
        <mxCell id="hjuyHTvlB5CmD21Vtv22-17" style="edgeStyle=orthogonalEdgeStyle;rounded=0;orthogonalLoop=1;jettySize=auto;html=1;entryX=0.5;entryY=1;entryDx=0;entryDy=0;startArrow=none;exitX=0.5;exitY=0;exitDx=0;exitDy=0;" edge="1" parent="1" source="soGgQo1d9cTRyv0vqCLj-25" target="soGgQo1d9cTRyv0vqCLj-11">
          <mxGeometry relative="1" as="geometry">
            <Array as="points">
              <mxPoint x="818" y="707" />
              <mxPoint x="849" y="707" />
            </Array>
          </mxGeometry>
        </mxCell>
        <mxCell id="hjuyHTvlB5CmD21Vtv22-57" value="Info. cas&lt;br style=&quot;border-color: var(--border-color);&quot;&gt;(hebdo)" style="edgeLabel;html=1;align=center;verticalAlign=middle;resizable=0;points=[];" vertex="1" connectable="0" parent="hjuyHTvlB5CmD21Vtv22-17">
          <mxGeometry x="0.1864" relative="1" as="geometry">
            <mxPoint as="offset" />
          </mxGeometry>
        </mxCell>
        <mxCell id="soGgQo1d9cTRyv0vqCLj-23" value="Hôpitaux&lt;br&gt;(CHC, CHOG)" style="html=1;dashed=0;whitespace=wrap;fillColor=#d5e8d4;strokeColor=#82b366;" parent="1" vertex="1">
          <mxGeometry x="633" y="760" width="100" height="50" as="geometry" />
        </mxCell>
        <mxCell id="Eu0Y002OEBs1yhH1_e7d-7" style="edgeStyle=orthogonalEdgeStyle;rounded=0;orthogonalLoop=1;jettySize=auto;html=1;entryX=0.25;entryY=1;entryDx=0;entryDy=0;exitX=0.5;exitY=0;exitDx=0;exitDy=0;" parent="1" source="soGgQo1d9cTRyv0vqCLj-23" target="soGgQo1d9cTRyv0vqCLj-11" edge="1">
          <mxGeometry relative="1" as="geometry">
            <mxPoint x="697" y="715" as="sourcePoint" />
            <mxPoint x="985" y="75" as="targetPoint" />
            <Array as="points">
              <mxPoint x="683" y="661" />
              <mxPoint x="824" y="661" />
            </Array>
          </mxGeometry>
        </mxCell>
        <mxCell id="hjuyHTvlB5CmD21Vtv22-58" value="Info. cas&lt;br&gt;(hebdo)" style="edgeLabel;html=1;align=center;verticalAlign=middle;resizable=0;points=[];" vertex="1" connectable="0" parent="Eu0Y002OEBs1yhH1_e7d-7">
          <mxGeometry x="0.511" y="-1" relative="1" as="geometry">
            <mxPoint as="offset" />
          </mxGeometry>
        </mxCell>
        <mxCell id="hjuyHTvlB5CmD21Vtv22-6" style="edgeStyle=orthogonalEdgeStyle;rounded=0;orthogonalLoop=1;jettySize=auto;html=1;exitX=0.5;exitY=0;exitDx=0;exitDy=0;entryX=0.5;entryY=1;entryDx=0;entryDy=0;" edge="1" parent="1" source="soGgQo1d9cTRyv0vqCLj-27" target="hjuyHTvlB5CmD21Vtv22-5">
          <mxGeometry relative="1" as="geometry" />
        </mxCell>
        <mxCell id="soGgQo1d9cTRyv0vqCLj-27" value="Médecine&lt;br style=&quot;border-color: var(--border-color);&quot;&gt;de ville" style="html=1;dashed=0;whitespace=wrap;fillColor=#d5e8d4;strokeColor=#82b366;" parent="1" vertex="1">
          <mxGeometry x="903" y="760" width="100" height="50" as="geometry" />
        </mxCell>
        <mxCell id="soGgQo1d9cTRyv0vqCLj-77" style="edgeStyle=orthogonalEdgeStyle;rounded=0;orthogonalLoop=1;jettySize=auto;html=1;entryX=0;entryY=0.25;entryDx=0;entryDy=0;exitX=1.022;exitY=0.498;exitDx=0;exitDy=0;exitPerimeter=0;" parent="1" source="soGgQo1d9cTRyv0vqCLj-32" target="n1sZ7gGWq_7eU4WZFnXG-12" edge="1">
          <mxGeometry relative="1" as="geometry" />
        </mxCell>
        <mxCell id="soGgQo1d9cTRyv0vqCLj-32" value="Info. cas" style="text;html=1;align=center;verticalAlign=middle;resizable=0;points=[];autosize=1;strokeColor=none;fillColor=none;" parent="1" vertex="1">
          <mxGeometry x="1082" y="-210" width="63" height="26" as="geometry" />
        </mxCell>
        <mxCell id="soGgQo1d9cTRyv0vqCLj-33" value="" style="edgeStyle=elbowEdgeStyle;rounded=0;orthogonalLoop=1;jettySize=auto;html=1;endArrow=none;entryX=-0.022;entryY=0.498;entryDx=0;entryDy=0;entryPerimeter=0;exitX=1;exitY=0.25;exitDx=0;exitDy=0;" parent="1" source="soGgQo1d9cTRyv0vqCLj-11" target="soGgQo1d9cTRyv0vqCLj-32" edge="1">
          <mxGeometry relative="1" as="geometry">
            <mxPoint x="737" y="183" as="sourcePoint" />
            <mxPoint x="837" y="182.5" as="targetPoint" />
            <Array as="points">
              <mxPoint x="976" y="-79" />
            </Array>
          </mxGeometry>
        </mxCell>
        <mxCell id="soGgQo1d9cTRyv0vqCLj-36" value="Tube de sang&lt;br&gt;+&lt;br&gt;Fiche de confirmation&lt;br&gt;de diagnostic" style="text;html=1;align=center;verticalAlign=middle;resizable=0;points=[];autosize=1;strokeColor=none;fillColor=none;" parent="1" vertex="1">
          <mxGeometry x="404.5" y="697" width="140" height="70" as="geometry" />
        </mxCell>
        <mxCell id="soGgQo1d9cTRyv0vqCLj-37" value="" style="edgeStyle=elbowEdgeStyle;rounded=0;orthogonalLoop=1;jettySize=auto;elbow=vertical;html=1;entryX=0.5;entryY=1;entryDx=0;entryDy=0;endArrow=none;" parent="1" source="soGgQo1d9cTRyv0vqCLj-5" target="soGgQo1d9cTRyv0vqCLj-36" edge="1">
          <mxGeometry relative="1" as="geometry">
            <mxPoint x="475" y="630" as="sourcePoint" />
            <mxPoint x="475" y="420" as="targetPoint" />
          </mxGeometry>
        </mxCell>
        <mxCell id="soGgQo1d9cTRyv0vqCLj-84" style="edgeStyle=orthogonalEdgeStyle;rounded=0;orthogonalLoop=1;jettySize=auto;html=1;entryX=0.75;entryY=1;entryDx=0;entryDy=0;endArrow=classic;endFill=1;" parent="1" source="soGgQo1d9cTRyv0vqCLj-38" target="soGgQo1d9cTRyv0vqCLj-7" edge="1">
          <mxGeometry relative="1" as="geometry">
            <Array as="points">
              <mxPoint x="345" y="724" />
              <mxPoint x="270" y="724" />
            </Array>
          </mxGeometry>
        </mxCell>
        <mxCell id="soGgQo1d9cTRyv0vqCLj-38" value="Données patients&lt;br&gt;Résultats TDR,&lt;br&gt;Circonstance de l&#39;infection, ..." style="text;html=1;align=center;verticalAlign=middle;resizable=0;points=[];autosize=1;strokeColor=none;fillColor=none;" parent="1" vertex="1">
          <mxGeometry x="259.5" y="747" width="174" height="55" as="geometry" />
        </mxCell>
        <mxCell id="soGgQo1d9cTRyv0vqCLj-41" value="" style="edgeStyle=elbowEdgeStyle;rounded=0;orthogonalLoop=1;jettySize=auto;html=1;endArrow=classic;elbow=vertical;exitX=0.5;exitY=0;exitDx=0;exitDy=0;fillColor=#e51400;strokeColor=#000000;endFill=1;entryX=0.5;entryY=0;entryDx=0;entryDy=0;" parent="1" source="soGgQo1d9cTRyv0vqCLj-1" target="soGgQo1d9cTRyv0vqCLj-11" edge="1">
          <mxGeometry relative="1" as="geometry">
            <mxPoint x="525" y="655" as="sourcePoint" />
            <mxPoint x="737" y="-3" as="targetPoint" />
            <Array as="points">
              <mxPoint x="510" y="-95" />
            </Array>
          </mxGeometry>
        </mxCell>
        <mxCell id="hjuyHTvlB5CmD21Vtv22-1" value="E&lt;span style=&quot;font-size: 12px; background-color: rgb(251, 251, 251);&quot;&gt;xtrait automatisé&lt;br&gt;de la base de données&lt;br&gt;des CDPS&lt;br&gt;(chaque lundi)&lt;br&gt;&lt;/span&gt;" style="edgeLabel;html=1;align=center;verticalAlign=middle;resizable=0;points=[];" vertex="1" connectable="0" parent="soGgQo1d9cTRyv0vqCLj-41">
          <mxGeometry x="0.2593" y="3" relative="1" as="geometry">
            <mxPoint x="11" y="-1" as="offset" />
          </mxGeometry>
        </mxCell>
        <mxCell id="soGgQo1d9cTRyv0vqCLj-49" value="&lt;span style=&quot;color: rgb(0, 0, 0);&quot;&gt;Fiche de&lt;/span&gt;&lt;br style=&quot;color: rgb(0, 0, 0);&quot;&gt;&lt;span style=&quot;color: rgb(0, 0, 0);&quot;&gt;confirmation de&lt;/span&gt;&lt;br style=&quot;color: rgb(0, 0, 0);&quot;&gt;&lt;span style=&quot;color: rgb(0, 0, 0);&quot;&gt;diagnostic (avec résultat)&lt;/span&gt;" style="text;whiteSpace=wrap;html=1;fontColor=#3399FF;align=center;" parent="1" vertex="1">
          <mxGeometry x="424" y="385" width="100" height="50" as="geometry" />
        </mxCell>
        <mxCell id="soGgQo1d9cTRyv0vqCLj-50" value="" style="edgeStyle=orthogonalEdgeStyle;rounded=0;orthogonalLoop=1;jettySize=auto;html=1;exitX=0.5;exitY=0;exitDx=0;exitDy=0;endArrow=none;" parent="1" source="soGgQo1d9cTRyv0vqCLj-16" edge="1">
          <mxGeometry relative="1" as="geometry">
            <mxPoint x="445" y="380.5" as="sourcePoint" />
            <mxPoint x="474" y="454" as="targetPoint" />
          </mxGeometry>
        </mxCell>
        <mxCell id="hjuyHTvlB5CmD21Vtv22-25" style="edgeStyle=orthogonalEdgeStyle;rounded=0;orthogonalLoop=1;jettySize=auto;html=1;entryX=0;entryY=0.75;entryDx=0;entryDy=0;exitX=0.5;exitY=0;exitDx=0;exitDy=0;" edge="1" parent="1" source="soGgQo1d9cTRyv0vqCLj-51" target="soGgQo1d9cTRyv0vqCLj-11">
          <mxGeometry relative="1" as="geometry" />
        </mxCell>
        <mxCell id="soGgQo1d9cTRyv0vqCLj-51" value="&lt;font color=&quot;#000000&quot;&gt;Info. cas&lt;/font&gt;&lt;br&gt;&lt;font color=&quot;#000000&quot;&gt;+&lt;/font&gt;&lt;br&gt;&lt;font color=&quot;#000000&quot;&gt;Info.&lt;br style=&quot;&quot;&gt;confirmation&lt;br style=&quot;&quot;&gt;diagnostic&lt;br&gt;&lt;span style=&quot;font-size: 11px; background-color: rgb(255, 255, 255);&quot;&gt;(hebdo)&lt;/span&gt;&lt;/font&gt;&lt;span style=&quot;color: rgb(0, 0, 0);&quot;&gt;&lt;br&gt;&lt;/span&gt;" style="text;whiteSpace=wrap;html=1;fontColor=#3399FF;align=center;" parent="1" vertex="1">
          <mxGeometry x="586" y="356" width="100" height="84" as="geometry" />
        </mxCell>
        <mxCell id="soGgQo1d9cTRyv0vqCLj-52" value="" style="edgeStyle=elbowEdgeStyle;rounded=0;orthogonalLoop=1;jettySize=auto;elbow=vertical;html=1;endArrow=none;exitX=1;exitY=0.5;exitDx=0;exitDy=0;entryX=0.5;entryY=1;entryDx=0;entryDy=0;" parent="1" source="soGgQo1d9cTRyv0vqCLj-16" target="soGgQo1d9cTRyv0vqCLj-51" edge="1">
          <mxGeometry relative="1" as="geometry">
            <mxPoint x="395" y="343" as="sourcePoint" />
            <mxPoint x="450" y="238" as="targetPoint" />
            <Array as="points">
              <mxPoint x="579" y="627" />
            </Array>
          </mxGeometry>
        </mxCell>
        <mxCell id="soGgQo1d9cTRyv0vqCLj-58" value="&lt;font color=&quot;#000000&quot;&gt;Info.&lt;br&gt;confirmation&lt;br&gt;diagnostic&lt;br&gt;(comment pris en compte dans la base de données ? (question aux CDPS)&lt;br&gt;&lt;/font&gt;" style="text;whiteSpace=wrap;html=1;fontColor=#3399FF;align=center;" parent="1" vertex="1">
          <mxGeometry x="310" y="564.98" width="100" height="124.01" as="geometry" />
        </mxCell>
        <mxCell id="soGgQo1d9cTRyv0vqCLj-59" value="" style="edgeStyle=elbowEdgeStyle;rounded=0;orthogonalLoop=1;jettySize=auto;elbow=vertical;html=1;exitX=0;exitY=0.5;exitDx=0;exitDy=0;entryX=1;entryY=0.5;entryDx=0;entryDy=0;endArrow=none;" parent="1" source="soGgQo1d9cTRyv0vqCLj-16" target="soGgQo1d9cTRyv0vqCLj-58" edge="1">
          <mxGeometry relative="1" as="geometry">
            <mxPoint x="345" y="380.5" as="sourcePoint" />
            <mxPoint x="305" y="458" as="targetPoint" />
          </mxGeometry>
        </mxCell>
        <mxCell id="soGgQo1d9cTRyv0vqCLj-66" style="edgeStyle=orthogonalEdgeStyle;rounded=0;orthogonalLoop=1;jettySize=auto;html=1;entryX=0.75;entryY=1;entryDx=0;entryDy=0;endArrow=none;endFill=0;startArrow=classic;startFill=1;exitX=1;exitY=0;exitDx=0;exitDy=0;" parent="1" source="soGgQo1d9cTRyv0vqCLj-79" target="soGgQo1d9cTRyv0vqCLj-76" edge="1">
          <mxGeometry relative="1" as="geometry" />
        </mxCell>
        <mxCell id="soGgQo1d9cTRyv0vqCLj-70" style="edgeStyle=orthogonalEdgeStyle;rounded=0;orthogonalLoop=1;jettySize=auto;html=1;exitX=0.25;exitY=0.5;exitDx=0;exitDy=0;entryX=0.5;entryY=1;entryDx=0;entryDy=0;endArrow=classic;endFill=1;startArrow=none;exitPerimeter=0;" parent="1" target="soGgQo1d9cTRyv0vqCLj-27" edge="1" source="hjuyHTvlB5CmD21Vtv22-31">
          <mxGeometry relative="1" as="geometry">
            <mxPoint x="953" y="914.9999999999995" as="sourcePoint" />
            <mxPoint x="1662" y="949.4850000000006" as="targetPoint" />
          </mxGeometry>
        </mxCell>
        <mxCell id="soGgQo1d9cTRyv0vqCLj-80" style="edgeStyle=orthogonalEdgeStyle;rounded=0;orthogonalLoop=1;jettySize=auto;html=1;exitX=0;exitY=0.3333333333333333;exitDx=0;exitDy=0;entryX=0;entryY=1;entryDx=0;entryDy=0;endArrow=classic;endFill=1;exitPerimeter=0;" parent="1" source="0BxKxRSpmN7JtVQ8fGr3-14" target="soGgQo1d9cTRyv0vqCLj-79" edge="1">
          <mxGeometry relative="1" as="geometry">
            <mxPoint x="1157" y="1000" as="sourcePoint" />
            <Array as="points">
              <mxPoint x="1150" y="1006" />
            </Array>
          </mxGeometry>
        </mxCell>
        <mxCell id="soGgQo1d9cTRyv0vqCLj-74" style="edgeStyle=orthogonalEdgeStyle;rounded=0;orthogonalLoop=1;jettySize=auto;html=1;exitX=0.25;exitY=0;exitDx=0;exitDy=0;entryX=0.25;entryY=1;entryDx=0;entryDy=0;strokeColor=#000000;endArrow=classic;endFill=1;" parent="1" source="soGgQo1d9cTRyv0vqCLj-76" target="soGgQo1d9cTRyv0vqCLj-21" edge="1">
          <mxGeometry relative="1" as="geometry" />
        </mxCell>
        <mxCell id="soGgQo1d9cTRyv0vqCLj-75" value="Resultats enquête" style="edgeLabel;html=1;align=center;verticalAlign=middle;resizable=0;points=[];labelBackgroundColor=none;" parent="soGgQo1d9cTRyv0vqCLj-74" vertex="1" connectable="0">
          <mxGeometry x="0.0692" y="9" relative="1" as="geometry">
            <mxPoint x="9" y="13" as="offset" />
          </mxGeometry>
        </mxCell>
        <mxCell id="soGgQo1d9cTRyv0vqCLj-76" value="Agents&lt;br&gt;de terrain&lt;br&gt;(CTG/SDD)" style="html=1;dashed=0;whitespace=wrap;fillColor=#d5e8d4;strokeColor=#82b366;" parent="1" vertex="1">
          <mxGeometry x="1132" y="661.99" width="100" height="50" as="geometry" />
        </mxCell>
        <mxCell id="soGgQo1d9cTRyv0vqCLj-81" style="edgeStyle=orthogonalEdgeStyle;rounded=0;orthogonalLoop=1;jettySize=auto;html=1;exitX=1;exitY=1;exitDx=0;exitDy=0;entryX=1;entryY=0.3333333333333333;entryDx=0;entryDy=0;endArrow=classic;endFill=1;entryPerimeter=0;" parent="1" source="soGgQo1d9cTRyv0vqCLj-79" target="0BxKxRSpmN7JtVQ8fGr3-14" edge="1">
          <mxGeometry relative="1" as="geometry">
            <mxPoint x="1207" y="1000" as="targetPoint" />
            <Array as="points">
              <mxPoint x="1214" y="1006" />
            </Array>
          </mxGeometry>
        </mxCell>
        <mxCell id="soGgQo1d9cTRyv0vqCLj-82" value="&lt;span style=&quot;&quot;&gt;&lt;font style=&quot;font-size: 12px;&quot;&gt;Informations de prévention&lt;/font&gt;&lt;/span&gt;" style="edgeLabel;html=1;align=left;verticalAlign=middle;resizable=0;points=[];" parent="soGgQo1d9cTRyv0vqCLj-81" vertex="1" connectable="0">
          <mxGeometry x="-0.1797" relative="1" as="geometry">
            <mxPoint x="-17" y="-1" as="offset" />
          </mxGeometry>
        </mxCell>
        <mxCell id="hjuyHTvlB5CmD21Vtv22-19" style="edgeStyle=orthogonalEdgeStyle;rounded=0;orthogonalLoop=1;jettySize=auto;html=1;exitX=0;exitY=0;exitDx=0;exitDy=0;entryX=0.25;entryY=1;entryDx=0;entryDy=0;" edge="1" parent="1" source="soGgQo1d9cTRyv0vqCLj-79" target="soGgQo1d9cTRyv0vqCLj-76">
          <mxGeometry relative="1" as="geometry" />
        </mxCell>
        <mxCell id="soGgQo1d9cTRyv0vqCLj-79" value="&lt;div style=&quot;&quot;&gt;&lt;div&gt;&lt;span style=&quot;background-color: initial;&quot;&gt;Pulvérisation insecticides&lt;/span&gt;&lt;/div&gt;&lt;span style=&quot;text-align: left; background-color: initial;&quot;&gt;&lt;div style=&quot;text-align: center;&quot;&gt;&lt;span style=&quot;background-color: initial;&quot;&gt;Destruction gîtes larvaires&lt;/span&gt;&lt;/div&gt;&lt;/span&gt;&lt;span style=&quot;text-align: left; background-color: initial;&quot;&gt;&lt;div style=&quot;text-align: center;&quot;&gt;&lt;span style=&quot;background-color: initial;&quot;&gt;Enquête&lt;/span&gt;&lt;/div&gt;&lt;div style=&quot;text-align: center;&quot;&gt;&lt;span style=&quot;background-color: initial;&quot;&gt;Prévention&lt;/span&gt;&lt;/div&gt;&lt;/span&gt;&lt;/div&gt;" style="shape=ellipse;html=1;dashed=0;whitespace=wrap;aspect=fixed;perimeter=ellipsePerimeter;fillColor=none;align=center;labelPosition=center;verticalLabelPosition=middle;verticalAlign=middle;" parent="1" vertex="1">
          <mxGeometry x="1137" y="787" width="90" height="90" as="geometry" />
        </mxCell>
        <mxCell id="n1sZ7gGWq_7eU4WZFnXG-20" style="edgeStyle=orthogonalEdgeStyle;rounded=0;orthogonalLoop=1;jettySize=auto;html=1;entryX=1;entryY=0.3333333333333333;entryDx=0;entryDy=0;fontSize=12;entryPerimeter=0;exitX=1;exitY=0.5;exitDx=0;exitDy=0;" parent="1" source="n1sZ7gGWq_7eU4WZFnXG-12" target="0BxKxRSpmN7JtVQ8fGr3-12" edge="1">
          <mxGeometry relative="1" as="geometry">
            <Array as="points">
              <mxPoint x="1709" y="-185" />
              <mxPoint x="1709" y="1207" />
            </Array>
            <mxPoint x="1232" y="1105" as="targetPoint" />
          </mxGeometry>
        </mxCell>
        <mxCell id="n1sZ7gGWq_7eU4WZFnXG-21" value="Messages&lt;br&gt;de prévention" style="edgeLabel;html=1;align=center;verticalAlign=middle;resizable=0;points=[];fontSize=12;" parent="n1sZ7gGWq_7eU4WZFnXG-20" vertex="1" connectable="0">
          <mxGeometry x="-0.5871" y="-2" relative="1" as="geometry">
            <mxPoint x="-280" y="1164" as="offset" />
          </mxGeometry>
        </mxCell>
        <mxCell id="Eu0Y002OEBs1yhH1_e7d-10" style="edgeStyle=orthogonalEdgeStyle;rounded=0;orthogonalLoop=1;jettySize=auto;html=1;entryX=0.5;entryY=0;entryDx=0;entryDy=0;startArrow=none;exitX=0;exitY=0.5;exitDx=0;exitDy=0;" parent="1" source="hjuyHTvlB5CmD21Vtv22-11" target="soGgQo1d9cTRyv0vqCLj-21" edge="1">
          <mxGeometry relative="1" as="geometry" />
        </mxCell>
        <mxCell id="Eu0Y002OEBs1yhH1_e7d-11" style="edgeStyle=orthogonalEdgeStyle;rounded=0;orthogonalLoop=1;jettySize=auto;html=1;exitX=0;exitY=0.75;exitDx=0;exitDy=0;entryX=0.5;entryY=0;entryDx=0;entryDy=0;" parent="1" source="n1sZ7gGWq_7eU4WZFnXG-12" target="Eu0Y002OEBs1yhH1_e7d-9" edge="1">
          <mxGeometry relative="1" as="geometry">
            <mxPoint x="1366.75" y="-236" as="sourcePoint" />
            <mxPoint x="1156" y="-75" as="targetPoint" />
          </mxGeometry>
        </mxCell>
        <mxCell id="hjuyHTvlB5CmD21Vtv22-3" value="Toute information utile&lt;br&gt;à la gestion sanitaire" style="edgeLabel;html=1;align=center;verticalAlign=middle;resizable=0;points=[];" vertex="1" connectable="0" parent="Eu0Y002OEBs1yhH1_e7d-11">
          <mxGeometry x="0.7897" y="-1" relative="1" as="geometry">
            <mxPoint y="-51" as="offset" />
          </mxGeometry>
        </mxCell>
        <mxCell id="Eu0Y002OEBs1yhH1_e7d-25" style="edgeStyle=orthogonalEdgeStyle;rounded=0;orthogonalLoop=1;jettySize=auto;html=1;exitX=1;exitY=0.25;exitDx=0;exitDy=0;entryX=0;entryY=0.5;entryDx=0;entryDy=0;" parent="1" source="n1sZ7gGWq_7eU4WZFnXG-12" target="Eu0Y002OEBs1yhH1_e7d-24" edge="1">
          <mxGeometry relative="1" as="geometry" />
        </mxCell>
        <mxCell id="Eu0Y002OEBs1yhH1_e7d-26" value="&amp;nbsp;(trimestriel)&amp;nbsp;" style="edgeLabel;html=1;align=center;verticalAlign=middle;resizable=0;points=[];" parent="Eu0Y002OEBs1yhH1_e7d-25" vertex="1" connectable="0">
          <mxGeometry x="0.8695" y="3" relative="1" as="geometry">
            <mxPoint x="-48" y="3" as="offset" />
          </mxGeometry>
        </mxCell>
        <mxCell id="hjuyHTvlB5CmD21Vtv22-30" style="edgeStyle=orthogonalEdgeStyle;rounded=0;orthogonalLoop=1;jettySize=auto;html=1;entryX=1;entryY=0.5;entryDx=0;entryDy=0;exitX=0.25;exitY=1;exitDx=0;exitDy=0;" edge="1" parent="1" source="n1sZ7gGWq_7eU4WZFnXG-12" target="hjuyHTvlB5CmD21Vtv22-11">
          <mxGeometry relative="1" as="geometry" />
        </mxCell>
        <mxCell id="n1sZ7gGWq_7eU4WZFnXG-12" value="ARS Guyane" style="html=1;dashed=0;whitespace=wrap;" parent="1" vertex="1">
          <mxGeometry x="1344" y="-210" width="100" height="50" as="geometry" />
        </mxCell>
        <mxCell id="n1sZ7gGWq_7eU4WZFnXG-22" style="edgeStyle=orthogonalEdgeStyle;rounded=0;orthogonalLoop=1;jettySize=auto;html=1;exitX=0.5;exitY=0;exitDx=0;exitDy=0;entryX=0.5;entryY=1;entryDx=0;entryDy=0;fontSize=12;dashed=1;" parent="1" edge="1">
          <mxGeometry relative="1" as="geometry">
            <mxPoint x="1182" y="1080" as="sourcePoint" />
            <mxPoint x="1182" y="1050" as="targetPoint" />
          </mxGeometry>
        </mxCell>
        <mxCell id="n1sZ7gGWq_7eU4WZFnXG-24" value="" style="edgeStyle=orthogonalEdgeStyle;rounded=0;orthogonalLoop=1;jettySize=auto;html=1;dashed=1;fontSize=12;exitX=0.5;exitY=0;exitDx=0;exitDy=0;exitPerimeter=0;" parent="1" source="0BxKxRSpmN7JtVQ8fGr3-12" edge="1">
          <mxGeometry relative="1" as="geometry">
            <mxPoint x="1182" y="1080" as="sourcePoint" />
            <mxPoint x="1182" y="1050" as="targetPoint" />
            <Array as="points">
              <mxPoint x="1182" y="1088" />
              <mxPoint x="1182" y="1088" />
            </Array>
          </mxGeometry>
        </mxCell>
        <mxCell id="u60AbG91HoaB3VA-9xF0-1" value="IRD Cayenne" style="html=1;dashed=0;whitespace=wrap;" parent="1" vertex="1">
          <mxGeometry x="-369" y="601.99" width="100" height="50" as="geometry" />
        </mxCell>
        <mxCell id="0BxKxRSpmN7JtVQ8fGr3-1" value="&lt;font style=&quot;font-size: 14px;&quot;&gt;&lt;span style=&quot;font-size: 14px;&quot;&gt;CHC&lt;/span&gt;&lt;/font&gt;" style="text;html=1;align=center;verticalAlign=middle;resizable=0;points=[];autosize=1;strokeColor=none;fillColor=none;fontSize=14;fontStyle=1" parent="1" vertex="1">
          <mxGeometry x="36" y="557" width="48" height="29" as="geometry" />
        </mxCell>
        <mxCell id="0BxKxRSpmN7JtVQ8fGr3-2" value="&lt;font style=&quot;font-size: 14px;&quot;&gt;&lt;span style=&quot;font-size: 14px;&quot;&gt;CTG&lt;/span&gt;&lt;/font&gt;" style="text;html=1;align=center;verticalAlign=middle;resizable=0;points=[];autosize=1;strokeColor=none;fillColor=none;fontSize=14;fontStyle=1" parent="1" vertex="1">
          <mxGeometry x="1102" y="509" width="48" height="29" as="geometry" />
        </mxCell>
        <mxCell id="0BxKxRSpmN7JtVQ8fGr3-3" value="DAAC" style="html=1;dashed=0;whitespace=wrap;fillColor=#d5e8d4;strokeColor=#82b366;" parent="1" vertex="1">
          <mxGeometry x="-176" y="1272" width="100" height="50" as="geometry" />
        </mxCell>
        <mxCell id="0BxKxRSpmN7JtVQ8fGr3-4" value="ISSanté" style="html=1;dashed=0;whitespace=wrap;fillColor=#d5e8d4;strokeColor=#82b366;" parent="1" vertex="1">
          <mxGeometry x="-61" y="1272" width="100" height="50" as="geometry" />
        </mxCell>
        <mxCell id="0BxKxRSpmN7JtVQ8fGr3-33" style="edgeStyle=orthogonalEdgeStyle;rounded=0;orthogonalLoop=1;jettySize=auto;html=1;entryX=0;entryY=0.3333333333333333;entryDx=0;entryDy=0;entryPerimeter=0;fontSize=12;fontColor=#000000;startArrow=none;startFill=0;endArrow=classic;endFill=1;exitX=1;exitY=0.5;exitDx=0;exitDy=0;" parent="1" source="0BxKxRSpmN7JtVQ8fGr3-34" target="0BxKxRSpmN7JtVQ8fGr3-12" edge="1">
          <mxGeometry relative="1" as="geometry" />
        </mxCell>
        <mxCell id="hjuyHTvlB5CmD21Vtv22-52" style="edgeStyle=orthogonalEdgeStyle;rounded=0;orthogonalLoop=1;jettySize=auto;html=1;exitX=0.5;exitY=0;exitDx=0;exitDy=0;" edge="1" parent="1" source="0BxKxRSpmN7JtVQ8fGr3-6" target="soGgQo1d9cTRyv0vqCLj-7">
          <mxGeometry relative="1" as="geometry" />
        </mxCell>
        <mxCell id="hjuyHTvlB5CmD21Vtv22-54" style="edgeStyle=orthogonalEdgeStyle;rounded=0;orthogonalLoop=1;jettySize=auto;html=1;exitX=0.5;exitY=1;exitDx=0;exitDy=0;entryX=1;entryY=0.75;entryDx=0;entryDy=0;" edge="1" parent="1" source="0BxKxRSpmN7JtVQ8fGr3-6" target="n1sZ7gGWq_7eU4WZFnXG-12">
          <mxGeometry relative="1" as="geometry">
            <Array as="points">
              <mxPoint x="245" y="1105" />
              <mxPoint x="1630" y="1105" />
              <mxPoint x="1630" y="-172" />
            </Array>
          </mxGeometry>
        </mxCell>
        <mxCell id="0BxKxRSpmN7JtVQ8fGr3-6" value="EMSPeC" style="html=1;dashed=0;whitespace=wrap;fillColor=#d5e8d4;strokeColor=#82b366;" parent="1" vertex="1">
          <mxGeometry x="195" y="833" width="100" height="50" as="geometry" />
        </mxCell>
        <mxCell id="0BxKxRSpmN7JtVQ8fGr3-7" value="&lt;b&gt;&lt;i&gt;Légende&lt;/i&gt;&lt;/b&gt;" style="rounded=0;whiteSpace=wrap;html=1;fontSize=18;align=center;verticalAlign=top;fillColor=default;" parent="1" vertex="1">
          <mxGeometry x="1865" y="620" width="285" height="209" as="geometry" />
        </mxCell>
        <mxCell id="0BxKxRSpmN7JtVQ8fGr3-8" value="Personne, organisme ou&lt;br&gt;service&amp;nbsp;en relation direct&lt;br&gt;avec la&lt;br&gt;population générale" style="html=1;dashed=0;whitespace=wrap;fillColor=#d5e8d4;strokeColor=#82b366;" parent="1" vertex="1">
          <mxGeometry x="2020" y="668" width="100" height="50" as="geometry" />
        </mxCell>
        <mxCell id="0BxKxRSpmN7JtVQ8fGr3-11" value="Personne,&lt;br&gt;organisme&amp;nbsp;ou&lt;br&gt;service" style="html=1;dashed=0;whitespace=wrap;" parent="1" vertex="1">
          <mxGeometry x="1894" y="668" width="100" height="50" as="geometry" />
        </mxCell>
        <mxCell id="0BxKxRSpmN7JtVQ8fGr3-12" value="Individu" style="shape=umlActor;verticalLabelPosition=bottom;verticalAlign=top;html=1;outlineConnect=0;labelBackgroundColor=none;fontSize=18;strokeWidth=3;" parent="1" vertex="1">
          <mxGeometry x="1167" y="1187" width="30" height="60" as="geometry" />
        </mxCell>
        <mxCell id="hjuyHTvlB5CmD21Vtv22-45" style="edgeStyle=orthogonalEdgeStyle;rounded=0;orthogonalLoop=1;jettySize=auto;html=1;entryX=0.5;entryY=0;entryDx=0;entryDy=0;" edge="1" parent="1" source="0BxKxRSpmN7JtVQ8fGr3-14" target="0BxKxRSpmN7JtVQ8fGr3-22">
          <mxGeometry relative="1" as="geometry" />
        </mxCell>
        <mxCell id="0BxKxRSpmN7JtVQ8fGr3-14" value="&lt;font color=&quot;#000000&quot;&gt;Individu avec symptômes&lt;/font&gt;" style="shape=umlActor;verticalLabelPosition=bottom;verticalAlign=top;html=1;outlineConnect=0;labelBackgroundColor=none;fontSize=18;fillColor=#60a917;strokeColor=#2D7600;fontColor=#ffffff;strokeWidth=3;" parent="1" vertex="1">
          <mxGeometry x="1167" y="986" width="30" height="60" as="geometry" />
        </mxCell>
        <mxCell id="0BxKxRSpmN7JtVQ8fGr3-17" value="&lt;div style=&quot;text-align: center;&quot;&gt;&lt;span style=&quot;background-color: rgb(248, 249, 250); font-size: 12px;&quot;&gt;Résultats&lt;/span&gt;&lt;/div&gt;&lt;span style=&quot;font-size: 12px; background-color: rgb(248, 249, 250);&quot;&gt;&lt;div style=&quot;text-align: center;&quot;&gt;enquête&lt;/div&gt;&lt;/span&gt;&lt;div style=&quot;text-align: center;&quot;&gt;épidémiologique&lt;/div&gt;" style="edgeLabel;html=1;align=right;verticalAlign=middle;resizable=0;points=[];" parent="1" vertex="1" connectable="0">
          <mxGeometry x="1187.0000000000005" y="926.998695652174" as="geometry" />
        </mxCell>
        <mxCell id="0BxKxRSpmN7JtVQ8fGr3-21" style="edgeStyle=orthogonalEdgeStyle;rounded=0;orthogonalLoop=1;jettySize=auto;html=1;entryX=0.5;entryY=1;entryDx=0;entryDy=0;fontSize=12;fontColor=#000000;startArrow=none;startFill=0;endArrow=classic;endFill=1;exitX=0.25;exitY=0.5;exitDx=0;exitDy=0;exitPerimeter=0;" parent="1" source="hjuyHTvlB5CmD21Vtv22-31" target="soGgQo1d9cTRyv0vqCLj-5" edge="1">
          <mxGeometry relative="1" as="geometry">
            <mxPoint x="474" y="914.9999999999995" as="sourcePoint" />
          </mxGeometry>
        </mxCell>
        <mxCell id="hjuyHTvlB5CmD21Vtv22-27" style="edgeStyle=orthogonalEdgeStyle;rounded=0;orthogonalLoop=1;jettySize=auto;html=1;entryX=0.5;entryY=1;entryDx=0;entryDy=0;exitX=0.7;exitY=0.1;exitDx=0;exitDy=0;exitPerimeter=0;" edge="1" parent="1" source="hjuyHTvlB5CmD21Vtv22-31" target="soGgQo1d9cTRyv0vqCLj-23">
          <mxGeometry relative="1" as="geometry" />
        </mxCell>
        <mxCell id="hjuyHTvlB5CmD21Vtv22-50" style="edgeStyle=orthogonalEdgeStyle;rounded=0;orthogonalLoop=1;jettySize=auto;html=1;exitX=0;exitY=0.5;exitDx=0;exitDy=0;entryX=0.25;entryY=0.5;entryDx=0;entryDy=0;entryPerimeter=0;" edge="1" parent="1" source="0BxKxRSpmN7JtVQ8fGr3-22" target="hjuyHTvlB5CmD21Vtv22-31">
          <mxGeometry relative="1" as="geometry" />
        </mxCell>
        <mxCell id="0BxKxRSpmN7JtVQ8fGr3-22" value="Consulte" style="ellipse;whiteSpace=wrap;html=1;aspect=fixed;labelBackgroundColor=none;strokeWidth=1;fontSize=12;fillColor=#d5e8d4;strokeColor=#82b366;direction=south;" parent="1" vertex="1">
          <mxGeometry x="711" y="976" width="80" height="80" as="geometry" />
        </mxCell>
        <mxCell id="hjuyHTvlB5CmD21Vtv22-18" style="edgeStyle=orthogonalEdgeStyle;rounded=0;orthogonalLoop=1;jettySize=auto;html=1;exitX=0.7;exitY=0.9;exitDx=0;exitDy=0;entryX=0.5;entryY=1;entryDx=0;entryDy=0;exitPerimeter=0;" edge="1" parent="1" source="hjuyHTvlB5CmD21Vtv22-31" target="soGgQo1d9cTRyv0vqCLj-25">
          <mxGeometry relative="1" as="geometry">
            <mxPoint x="818" y="914.9999999999995" as="sourcePoint" />
          </mxGeometry>
        </mxCell>
        <mxCell id="0BxKxRSpmN7JtVQ8fGr3-30" value="Action" style="ellipse;whiteSpace=wrap;html=1;aspect=fixed;labelBackgroundColor=none;strokeWidth=1;fontSize=12;" parent="1" vertex="1">
          <mxGeometry x="1904" y="736" width="80" height="80" as="geometry" />
        </mxCell>
        <mxCell id="0BxKxRSpmN7JtVQ8fGr3-31" value="Action initiant le flux de données" style="ellipse;whiteSpace=wrap;html=1;aspect=fixed;labelBackgroundColor=none;strokeWidth=1;fontSize=12;fillColor=#d5e8d4;strokeColor=#82b366;" parent="1" vertex="1">
          <mxGeometry x="2030" y="736" width="80" height="80" as="geometry" />
        </mxCell>
        <mxCell id="0BxKxRSpmN7JtVQ8fGr3-35" value="" style="edgeStyle=orthogonalEdgeStyle;rounded=0;orthogonalLoop=1;jettySize=auto;html=1;entryX=0;entryY=0.5;entryDx=0;entryDy=0;fontSize=12;fontColor=#000000;startArrow=none;startFill=0;endArrow=none;endFill=1;exitX=0.25;exitY=1;exitDx=0;exitDy=0;" parent="1" source="0BxKxRSpmN7JtVQ8fGr3-6" target="0BxKxRSpmN7JtVQ8fGr3-34" edge="1">
          <mxGeometry relative="1" as="geometry">
            <mxPoint x="295.0769230769233" y="890" as="sourcePoint" />
            <mxPoint x="955" y="1141" as="targetPoint" />
            <Array as="points" />
          </mxGeometry>
        </mxCell>
        <mxCell id="0BxKxRSpmN7JtVQ8fGr3-34" value="&lt;div style=&quot;&quot;&gt;Prévention&lt;/div&gt;&lt;div style=&quot;&quot;&gt;Dépistage&lt;/div&gt;&lt;div style=&quot;&quot;&gt;...&lt;/div&gt;" style="shape=ellipse;html=1;dashed=0;whitespace=wrap;aspect=fixed;perimeter=ellipsePerimeter;fillColor=none;align=center;labelPosition=center;verticalLabelPosition=middle;verticalAlign=middle;" parent="1" vertex="1">
          <mxGeometry x="440" y="1161" width="90" height="90" as="geometry" />
        </mxCell>
        <mxCell id="B1FECNCcKLdafd96bGU7-7" value="" style="group;fillColor=#dae8fc;strokeColor=#6c8ebf;" parent="1" vertex="1" connectable="0">
          <mxGeometry x="197" y="382.25" width="54.02" height="55.5" as="geometry" />
        </mxCell>
        <mxCell id="B1FECNCcKLdafd96bGU7-4" value="&lt;font style=&quot;font-size: 18px;&quot;&gt;Ecoles des zones&lt;br&gt;de transmission&lt;br&gt;&lt;/font&gt;" style="html=1;verticalLabelPosition=bottom;align=center;labelBackgroundColor=#ffffff;verticalAlign=top;strokeWidth=2;strokeColor=#0080F0;shadow=0;dashed=0;shape=mxgraph.ios7.icons.home;" parent="B1FECNCcKLdafd96bGU7-7" vertex="1">
          <mxGeometry width="54.02" height="55.5" as="geometry" />
        </mxCell>
        <mxCell id="B1FECNCcKLdafd96bGU7-1" value="" style="shape=umlActor;verticalLabelPosition=bottom;verticalAlign=top;html=1;outlineConnect=0;labelBackgroundColor=none;fontSize=18;strokeWidth=3;" parent="B1FECNCcKLdafd96bGU7-7" vertex="1">
          <mxGeometry x="17.143333333333334" y="17.266666666666666" width="10.36" height="18.746666666666666" as="geometry" />
        </mxCell>
        <mxCell id="B1FECNCcKLdafd96bGU7-2" value="" style="shape=umlActor;verticalLabelPosition=bottom;verticalAlign=top;html=1;outlineConnect=0;labelBackgroundColor=none;fontSize=18;strokeWidth=3;" parent="B1FECNCcKLdafd96bGU7-7" vertex="1">
          <mxGeometry x="26.023333333333333" y="14.306666666666667" width="10.36" height="18.746666666666666" as="geometry" />
        </mxCell>
        <mxCell id="Eu0Y002OEBs1yhH1_e7d-6" style="edgeStyle=orthogonalEdgeStyle;rounded=0;orthogonalLoop=1;jettySize=auto;html=1;entryX=0.75;entryY=1;entryDx=0;entryDy=0;exitX=0.5;exitY=0;exitDx=0;exitDy=0;" parent="1" source="Eu0Y002OEBs1yhH1_e7d-1" target="soGgQo1d9cTRyv0vqCLj-11" edge="1">
          <mxGeometry relative="1" as="geometry">
            <mxPoint x="952" y="45" as="targetPoint" />
          </mxGeometry>
        </mxCell>
        <mxCell id="hjuyHTvlB5CmD21Vtv22-56" value="Info. cas&lt;br style=&quot;border-color: var(--border-color);&quot;&gt;(hebdo)" style="edgeLabel;html=1;align=center;verticalAlign=middle;resizable=0;points=[];" vertex="1" connectable="0" parent="Eu0Y002OEBs1yhH1_e7d-6">
          <mxGeometry x="-0.147" y="-3" relative="1" as="geometry">
            <mxPoint as="offset" />
          </mxGeometry>
        </mxCell>
        <mxCell id="Eu0Y002OEBs1yhH1_e7d-1" value="Labo. d&#39;analyse&lt;br&gt;médicale" style="html=1;dashed=0;whitespace=wrap;" parent="1" vertex="1">
          <mxGeometry x="903" y="523" width="100" height="50" as="geometry" />
        </mxCell>
        <mxCell id="hjuyHTvlB5CmD21Vtv22-38" style="edgeStyle=orthogonalEdgeStyle;rounded=0;orthogonalLoop=1;jettySize=auto;html=1;entryX=1;entryY=0.5;entryDx=0;entryDy=0;" edge="1" parent="1" source="Eu0Y002OEBs1yhH1_e7d-9" target="soGgQo1d9cTRyv0vqCLj-11">
          <mxGeometry relative="1" as="geometry" />
        </mxCell>
        <mxCell id="hjuyHTvlB5CmD21Vtv22-80" value="Info.&lt;br&gt;diverses" style="edgeLabel;html=1;align=center;verticalAlign=middle;resizable=0;points=[];" vertex="1" connectable="0" parent="hjuyHTvlB5CmD21Vtv22-38">
          <mxGeometry x="-0.3325" relative="1" as="geometry">
            <mxPoint x="14" as="offset" />
          </mxGeometry>
        </mxCell>
        <mxCell id="Eu0Y002OEBs1yhH1_e7d-9" value="Plateforme de veille&lt;br&gt;et de gestion sanitaire&lt;br&gt;(multiacteurs: ARS, SPF, CHC/infirmière&lt;br&gt;régionale de SP pour la veille)&lt;br&gt;Réunion hebdo." style="html=1;dashed=0;whitespace=wrap;" parent="1" vertex="1">
          <mxGeometry x="1105" y="-42" width="225" height="116" as="geometry" />
        </mxCell>
        <mxCell id="Eu0Y002OEBs1yhH1_e7d-19" value="SILAV" style="html=1;dashed=0;whitespace=wrap;" parent="1" vertex="1">
          <mxGeometry x="1335" y="596.99" width="100" height="50" as="geometry" />
        </mxCell>
        <mxCell id="Eu0Y002OEBs1yhH1_e7d-24" value="OPAS/OMS" style="html=1;dashed=0;whitespace=wrap;" parent="1" vertex="1">
          <mxGeometry x="1679" y="-285" width="100" height="50" as="geometry" />
        </mxCell>
        <mxCell id="hjuyHTvlB5CmD21Vtv22-5" value="&lt;div style=&quot;&quot;&gt;Si suspicion de palu. :&lt;/div&gt;&lt;div style=&quot;&quot;&gt;prescription examen&lt;/div&gt;&lt;div style=&quot;&quot;&gt;dans un labo.&lt;/div&gt;&lt;div style=&quot;&quot;&gt;ou&lt;/div&gt;&lt;div style=&quot;&quot;&gt;redirection vers CDPS&lt;/div&gt;" style="shape=ellipse;html=1;dashed=0;whitespace=wrap;aspect=fixed;perimeter=ellipsePerimeter;fillColor=none;align=center;labelPosition=center;verticalLabelPosition=middle;verticalAlign=middle;" vertex="1" parent="1">
          <mxGeometry x="908" y="626.99" width="90" height="90" as="geometry" />
        </mxCell>
        <mxCell id="hjuyHTvlB5CmD21Vtv22-12" value="" style="edgeStyle=orthogonalEdgeStyle;rounded=0;orthogonalLoop=1;jettySize=auto;html=1;entryX=0.75;entryY=1;entryDx=0;entryDy=0;endArrow=none;exitX=0.5;exitY=0;exitDx=0;exitDy=0;startArrow=classic;endFill=0;startFill=1;" edge="1" parent="1" source="hjuyHTvlB5CmD21Vtv22-13" target="n1sZ7gGWq_7eU4WZFnXG-12">
          <mxGeometry relative="1" as="geometry">
            <mxPoint x="1342" y="337" as="sourcePoint" />
            <mxPoint x="1232" y="565" as="targetPoint" />
          </mxGeometry>
        </mxCell>
        <mxCell id="hjuyHTvlB5CmD21Vtv22-11" value="&lt;div style=&quot;&quot;&gt;Sollicite&lt;/div&gt;" style="shape=ellipse;html=1;dashed=0;whitespace=wrap;aspect=fixed;perimeter=ellipsePerimeter;fillColor=none;align=center;labelPosition=center;verticalLabelPosition=middle;verticalAlign=middle;" vertex="1" parent="1">
          <mxGeometry x="1257" y="402" width="90" height="90" as="geometry" />
        </mxCell>
        <mxCell id="hjuyHTvlB5CmD21Vtv22-14" value="" style="edgeStyle=orthogonalEdgeStyle;rounded=0;orthogonalLoop=1;jettySize=auto;html=1;entryX=0.5;entryY=1;entryDx=0;entryDy=0;endArrow=none;exitX=0.75;exitY=1;exitDx=0;exitDy=0;endFill=0;startArrow=classic;startFill=1;" edge="1" parent="1" source="0BxKxRSpmN7JtVQ8fGr3-6" target="hjuyHTvlB5CmD21Vtv22-13">
          <mxGeometry relative="1" as="geometry">
            <mxPoint x="290" y="858" as="sourcePoint" />
            <mxPoint x="1078" y="377" as="targetPoint" />
            <Array as="points">
              <mxPoint x="270" y="1088" />
              <mxPoint x="1516" y="1088" />
            </Array>
          </mxGeometry>
        </mxCell>
        <mxCell id="hjuyHTvlB5CmD21Vtv22-13" value="&lt;div style=&quot;font-size: 11px;&quot;&gt;&lt;font style=&quot;font-size: 11px;&quot;&gt;Peut solliciter un appui&lt;br style=&quot;border-color: var(--border-color);&quot;&gt;&lt;span style=&quot;background-color: rgb(255, 255, 255);&quot;&gt;dans des cas particuliers,&lt;/span&gt;&lt;/font&gt;&lt;/div&gt;&lt;div style=&quot;font-size: 11px;&quot;&gt;&lt;font style=&quot;font-size: 11px;&quot;&gt;&lt;span style=&quot;background-color: rgb(255, 255, 255);&quot;&gt;pour des intervention dans&lt;/span&gt;&lt;/font&gt;&lt;/div&gt;&lt;div style=&quot;font-size: 11px;&quot;&gt;&lt;font style=&quot;font-size: 11px;&quot;&gt;&lt;span style=&quot;background-color: rgb(255, 255, 255);&quot;&gt;les&amp;nbsp;&lt;/span&gt;&lt;/font&gt;&lt;span style=&quot;background-color: rgb(255, 255, 255);&quot;&gt;communes isolées&lt;/span&gt;&lt;/div&gt;&lt;div style=&quot;font-size: 11px;&quot;&gt;&lt;font style=&quot;font-size: 11px;&quot;&gt;&lt;span style=&quot;background-color: rgb(255, 255, 255);&quot;&gt;(notamment si incapacité de la CTG&lt;/span&gt;&lt;/font&gt;&lt;/div&gt;&lt;div style=&quot;font-size: 11px;&quot;&gt;&lt;span style=&quot;background-color: rgb(255, 255, 255);&quot;&gt;&lt;font style=&quot;font-size: 11px;&quot;&gt;de se déployer dans les temps)&lt;/font&gt;&lt;/span&gt;&lt;br&gt;&lt;/div&gt;" style="shape=ellipse;html=1;dashed=0;whitespace=wrap;aspect=fixed;perimeter=ellipsePerimeter;fillColor=none;align=center;labelPosition=center;verticalLabelPosition=middle;verticalAlign=middle;" vertex="1" parent="1">
          <mxGeometry x="1471" y="402" width="90" height="90" as="geometry" />
        </mxCell>
        <mxCell id="hjuyHTvlB5CmD21Vtv22-31" value="" style="shape=xor;whiteSpace=wrap;html=1;direction=north;" vertex="1" parent="1">
          <mxGeometry x="711" y="886" width="80" height="60" as="geometry" />
        </mxCell>
        <mxCell id="hjuyHTvlB5CmD21Vtv22-33" value="" style="edgeStyle=orthogonalEdgeStyle;rounded=0;orthogonalLoop=1;jettySize=auto;html=1;exitX=0.5;exitY=0;exitDx=0;exitDy=0;endArrow=classic;endFill=1;entryX=0.5;entryY=0;entryDx=0;entryDy=0;" edge="1" parent="1" source="n1sZ7gGWq_7eU4WZFnXG-12" target="hjuyHTvlB5CmD21Vtv22-32">
          <mxGeometry relative="1" as="geometry">
            <mxPoint x="1182" y="-210" as="sourcePoint" />
            <mxPoint x="-293" y="763" as="targetPoint" />
            <Array as="points">
              <mxPoint x="1394" y="-305" />
              <mxPoint x="-630" y="-305" />
            </Array>
          </mxGeometry>
        </mxCell>
        <mxCell id="hjuyHTvlB5CmD21Vtv22-32" value="&lt;div style=&quot;&quot;&gt;Réunion mensuelle sur&lt;br style=&quot;border-color: var(--border-color);&quot;&gt;l&#39;actualité épidémio avec SVS-AP&lt;br style=&quot;border-color: var(--border-color);&quot;&gt;(dans le cadre du centre transfrontalier, 2022-2026)&amp;nbsp;&amp;nbsp;&lt;br&gt;&lt;/div&gt;" style="shape=ellipse;html=1;dashed=0;whitespace=wrap;aspect=fixed;perimeter=ellipsePerimeter;fillColor=none;align=center;labelPosition=center;verticalLabelPosition=middle;verticalAlign=middle;" vertex="1" parent="1">
          <mxGeometry x="-675" y="-173" width="90" height="90" as="geometry" />
        </mxCell>
        <mxCell id="hjuyHTvlB5CmD21Vtv22-37" value="" style="edgeStyle=orthogonalEdgeStyle;rounded=0;orthogonalLoop=1;jettySize=auto;html=1;exitX=1;exitY=0.75;exitDx=0;exitDy=0;entryX=-0.007;entryY=0.732;entryDx=0;entryDy=0;endArrow=none;entryPerimeter=0;" edge="1" parent="1" source="soGgQo1d9cTRyv0vqCLj-11" target="hjuyHTvlB5CmD21Vtv22-35">
          <mxGeometry relative="1" as="geometry">
            <mxPoint x="977" y="29" as="sourcePoint" />
            <mxPoint x="1215" y="67" as="targetPoint" />
            <Array as="points" />
          </mxGeometry>
        </mxCell>
        <mxCell id="hjuyHTvlB5CmD21Vtv22-35" value="Toute information utile&lt;br style=&quot;border-color: var(--border-color); font-size: 11px;&quot;&gt;à la gestion sanitaire" style="text;html=1;align=center;verticalAlign=middle;resizable=0;points=[];autosize=1;strokeColor=none;fillColor=none;" vertex="1" parent="1">
          <mxGeometry x="1052" y="110" width="135" height="41" as="geometry" />
        </mxCell>
        <mxCell id="hjuyHTvlB5CmD21Vtv22-40" value="BEH Paludisme&lt;br&gt;(hebdo)" style="shape=document;whiteSpace=wrap;html=1;boundedLbl=1;dashed=0;flipH=1;" vertex="1" parent="1">
          <mxGeometry x="824" y="-235" width="100" height="70" as="geometry" />
        </mxCell>
        <mxCell id="hjuyHTvlB5CmD21Vtv22-43" value="" style="edgeStyle=orthogonalEdgeStyle;rounded=0;orthogonalLoop=1;jettySize=auto;html=1;exitX=0;exitY=0.5;exitDx=0;exitDy=0;endArrow=none;entryX=1;entryY=0.559;entryDx=0;entryDy=0;entryPerimeter=0;" edge="1" parent="1" source="soGgQo1d9cTRyv0vqCLj-12" target="B1FECNCcKLdafd96bGU7-9">
          <mxGeometry relative="1" as="geometry">
            <mxPoint x="424" y="281" as="sourcePoint" />
            <mxPoint x="391" y="260" as="targetPoint" />
          </mxGeometry>
        </mxCell>
        <mxCell id="B1FECNCcKLdafd96bGU7-9" value="&lt;font style=&quot;font-size: 12px;&quot;&gt;Messages de&lt;br&gt;sensibilisation&lt;/font&gt;" style="text;html=1;align=center;verticalAlign=middle;resizable=0;points=[];autosize=1;strokeColor=none;fillColor=none;fontSize=18;" parent="1" vertex="1">
          <mxGeometry x="269" y="251" width="93" height="55" as="geometry" />
        </mxCell>
        <mxCell id="soGgQo1d9cTRyv0vqCLj-25" value="FAG" style="html=1;dashed=0;whitespace=wrap;" parent="1" vertex="1">
          <mxGeometry x="768" y="760" width="100" height="50" as="geometry" />
        </mxCell>
        <mxCell id="hjuyHTvlB5CmD21Vtv22-53" value="E&lt;span style=&quot;font-size: 12px; background-color: rgb(251, 251, 251);&quot;&gt;xtrait automatisé&lt;br&gt;de la base de données&lt;br&gt;des CDPS&lt;br&gt;(chaque dimanche)&lt;br&gt;&lt;/span&gt;" style="edgeLabel;html=1;align=center;verticalAlign=middle;resizable=0;points=[];" vertex="1" connectable="0" parent="1">
          <mxGeometry x="-106.99999999999977" y="621.99" as="geometry" />
        </mxCell>
        <mxCell id="hjuyHTvlB5CmD21Vtv22-60" value="&lt;font style=&quot;font-size: 14px;&quot;&gt;&lt;span style=&quot;font-size: 14px;&quot;&gt;SPF&lt;/span&gt;&lt;/font&gt;" style="text;html=1;align=center;verticalAlign=middle;resizable=0;points=[];autosize=1;strokeColor=none;fillColor=none;fontSize=14;fontStyle=1" vertex="1" parent="1">
          <mxGeometry x="766" y="-6" width="45" height="29" as="geometry" />
        </mxCell>
        <mxCell id="hjuyHTvlB5CmD21Vtv22-62" value="&lt;font style=&quot;font-size: 14px;&quot;&gt;&lt;span style=&quot;font-size: 14px;&quot;&gt;IPG&lt;/span&gt;&lt;/font&gt;" style="text;html=1;align=center;verticalAlign=middle;resizable=0;points=[];autosize=1;strokeColor=none;fillColor=none;fontSize=14;fontStyle=1" vertex="1" parent="1">
          <mxGeometry x="394.5" y="230" width="42" height="29" as="geometry" />
        </mxCell>
        <mxCell id="hjuyHTvlB5CmD21Vtv22-64" value="&lt;font style=&quot;font-size: 14px;&quot;&gt;&lt;span style=&quot;font-size: 14px;&quot;&gt;Ministère de la santé&lt;/span&gt;&lt;/font&gt;" style="text;html=1;align=center;verticalAlign=middle;resizable=0;points=[];autosize=1;strokeColor=none;fillColor=none;fontSize=14;fontStyle=1" vertex="1" parent="1">
          <mxGeometry x="1314" y="-245" width="156" height="29" as="geometry" />
        </mxCell>
        <mxCell id="hjuyHTvlB5CmD21Vtv22-65" style="edgeStyle=orthogonalEdgeStyle;rounded=0;orthogonalLoop=1;jettySize=auto;html=1;exitX=0.5;exitY=1;exitDx=0;exitDy=0;" edge="1" parent="1" source="soGgQo1d9cTRyv0vqCLj-58" target="soGgQo1d9cTRyv0vqCLj-58">
          <mxGeometry relative="1" as="geometry" />
        </mxCell>
        <mxCell id="hjuyHTvlB5CmD21Vtv22-77" value="&lt;font style=&quot;font-size: 14px;&quot;&gt;&lt;span style=&quot;font-size: 14px;&quot;&gt;Associations&lt;/span&gt;&lt;/font&gt;" style="text;html=1;align=center;verticalAlign=middle;resizable=0;points=[];autosize=1;strokeColor=none;fillColor=none;fontSize=14;fontStyle=1" vertex="1" parent="1">
          <mxGeometry x="-194" y="1221" width="105" height="29" as="geometry" />
        </mxCell>
        <mxCell id="hjuyHTvlB5CmD21Vtv22-79" value="&lt;div style=&quot;text-align: left; font-size: 14px;&quot;&gt;&lt;span style=&quot;background-color: initial;&quot;&gt;&lt;b style=&quot;&quot;&gt;&lt;font style=&quot;font-size: 14px;&quot;&gt;Acronymes&lt;/font&gt;&lt;/b&gt;&lt;/span&gt;&lt;/div&gt;&lt;div style=&quot;text-align: left;&quot;&gt;&lt;span style=&quot;background-color: initial;&quot;&gt;EMSPeC : Equipes mobiles&amp;nbsp;&lt;/span&gt;&lt;span style=&quot;background-color: initial;&quot;&gt;de santé&amp;nbsp;publique&amp;nbsp;&lt;/span&gt;&lt;span style=&quot;background-color: initial;&quot;&gt;en communes&lt;/span&gt;&lt;/div&gt;&lt;div style=&quot;text-align: left;&quot;&gt;&lt;span style=&quot;background-color: initial;&quot;&gt;CDPS : Centres délocalisés de prévention et de soin&lt;/span&gt;&lt;/div&gt;&lt;div style=&quot;text-align: left;&quot;&gt;&lt;span style=&quot;background-color: initial;&quot;&gt;CHC : Centre hospitalier de Cayenne&lt;/span&gt;&lt;/div&gt;&lt;div style=&quot;text-align: left;&quot;&gt;&lt;span style=&quot;background-color: initial;&quot;&gt;FAG : Forces armées de Guyane&lt;/span&gt;&lt;/div&gt;&lt;div style=&quot;text-align: left;&quot;&gt;&lt;span style=&quot;background-color: initial;&quot;&gt;LHUPM : Labo. hospitalo universitaire&amp;nbsp;&lt;/span&gt;&lt;span style=&quot;font-family: tahoma; font-size: 13px; background-color: rgb(255, 255, 255);&quot;&gt;de parasito-mycologie&lt;/span&gt;&lt;/div&gt;&lt;span style=&quot;&quot;&gt;&lt;div style=&quot;text-align: left;&quot;&gt;&lt;span style=&quot;background-color: initial;&quot;&gt;SPR : Santé publique France&lt;/span&gt;&lt;/div&gt;&lt;div style=&quot;text-align: left;&quot;&gt;&lt;span style=&quot;background-color: initial;&quot;&gt;CIRE : Cellule d&#39;intervention en région&lt;/span&gt;&lt;/div&gt;&lt;div style=&quot;text-align: left;&quot;&gt;&lt;span style=&quot;background-color: initial;&quot;&gt;ARS : Agence régionale de santé&lt;/span&gt;&lt;/div&gt;&lt;div style=&quot;text-align: left;&quot;&gt;&lt;span style=&quot;background-color: initial;&quot;&gt;CTG : Collectivité territoriale de la Guyane&lt;/span&gt;&lt;/div&gt;&lt;div style=&quot;text-align: left;&quot;&gt;&lt;span style=&quot;background-color: initial;&quot;&gt;SDD : services de la Direction de la démoustication et des actions de santé&lt;/span&gt;&lt;/div&gt;&lt;div style=&quot;text-align: left;&quot;&gt;&lt;span style=&quot;background-color: initial;&quot;&gt;IPG : Institut Pasteur de la Guyane&lt;/span&gt;&lt;/div&gt;&lt;div style=&quot;text-align: left;&quot;&gt;&lt;span style=&quot;background-color: initial;&quot;&gt;CNR : Centre national de référence&lt;/span&gt;&lt;/div&gt;&lt;div style=&quot;text-align: left;&quot;&gt;&lt;span style=&quot;background-color: initial;&quot;&gt;OPAS : Organisation pan-américaine de la santé&lt;/span&gt;&lt;/div&gt;&lt;div style=&quot;text-align: left;&quot;&gt;&lt;span style=&quot;background-color: initial;&quot;&gt;OMS : Organisation mondiale de la santé&lt;/span&gt;&lt;/div&gt;&lt;div style=&quot;text-align: left;&quot;&gt;&lt;span style=&quot;background-color: initial;&quot;&gt;BEH : Bulletin épidémiologique hebdomadaire&lt;/span&gt;&lt;/div&gt;&lt;div style=&quot;text-align: left;&quot;&gt;&lt;span style=&quot;background-color: initial;&quot;&gt;SILAV : Système d&#39;information de la lutte anti-vectorielle&lt;/span&gt;&lt;/div&gt;&lt;div style=&quot;text-align: left;&quot;&gt;&lt;span style=&quot;background-color: initial;&quot;&gt;CHOG : Centre hospitalier de l&#39;ouest guyanais&lt;/span&gt;&lt;/div&gt;&lt;br&gt;&lt;/span&gt;" style="rounded=0;whiteSpace=wrap;html=1;" vertex="1" parent="1">
          <mxGeometry x="1865" y="853" width="442" height="311" as="geometry" />
        </mxCell>
      </root>
    </mxGraphModel>
  </diagram>
</mxfile>
